HIERARCHY
ROOT Hips
{
	OFFSET 0.00000 0.00000 0.00000
	CHANNELS 6 Xposition Yposition Zposition Yrotation Zrotation Xrotation 
	JOINT Lumbar
	{
		OFFSET 0 0 0
		CHANNELS 3 Zrotation Xrotation Yrotation
		JOINT Neck
		{
			OFFSET 0.00 0.2701 0.00
			CHANNELS 3 Zrotation Xrotation Yrotation
			End Site
			{
				OFFSET 0.00 0.1379 0.00
			}
		}
		JOINT RightShoulder
		{
			OFFSET 0.0119 0.2289 0.1181
			CHANNELS 3 Zrotation Xrotation Yrotation
			JOINT RightElbow
			{
				OFFSET 0.00 -0.1475 0.00
				CHANNELS 2 Zrotation Yrotation
				JOINT RightWrist
				{
					OFFSET 0.00 -0.1605 0.00
					CHANNELS 2 Zrotation Xrotation
					End Site
					{
						OFFSET 0.0040 -0.1068 0.0006
					}
				}
			}
		}
		JOINT LeftShoulder
		{
			OFFSET 0.0119 0.2289 -0.1181
			CHANNELS 3 Zrotation Xrotation Yrotation
			JOINT LeftElbow
			{
				OFFSET 0.00 -0.1475 0.00
				CHANNELS 2 Zrotation Yrotation
				JOINT LeftWrist
				{
					OFFSET 0.00 -0.1605 0.00
					CHANNELS 2 Zrotation Xrotation
					End Site
					{
						OFFSET 0.0040 -0.1068 -0.0006
					}
				}
			}
		}
	}
	JOINT RightHip
	{
		OFFSET 0.0316 -0.0424 0.0458
		CHANNELS 3 Zrotation Xrotation Yrotation
		JOINT RightKnee
		{
			OFFSET 0.00 -0.2438 0.00
			CHANNELS 1 Zrotation
			JOINT RightAnkle
			{
				OFFSET 0.00 -0.2449 0.00
				CHANNELS 3 Zrotation Xrotation Yrotation
				End Site
				{
					OFFSET 0.1237 -0.0542 0.0051
				}
			}
		}
	}
	JOINT LeftHip
	{
		OFFSET 0.0316 -0.0424 -0.0458
		CHANNELS 3 Zrotation Xrotation Yrotation
		JOINT LeftKnee
		{
			OFFSET 0.00 -0.2438 0.00
			CHANNELS 1 Zrotation
			JOINT LeftAnkle
			{
				OFFSET 0.00 -0.2449 0.00
				CHANNELS 3 Zrotation Xrotation Yrotation
				End Site
				{
					OFFSET 0.1237 -0.0542 -0.0051
				}
			}
		}
	}
}
MOTION
Frames: 28
Frame Time: 0.02
0.00068 0.00028 -0.00012 -179.39199 -42.30018 -1.82454 48.55033 2.39213 -4.12182 6.42802 -2.20912 -0.47868 -10.10238 -12.50797 -5.16828 36.95059 89.80543 4.05595 1.55407 -15.42957 13.387 3.16914 45.70468 -98.12314 8.72998 -2.36637 45.78116 -2.80112 -7.07008 -19.18309 -6.44064 -2.82946 -3.57715 49.1424 5.6554 6.46759 -24.86101 -6.38689 1.89468 3.14663
0.00043 0.00022 -0.0001 -179.28599 -42.2268 -1.82655 48.59261 2.36576 -4.09114 6.25661 -2.18479 -0.4831 -10.62839 -12.39313 -5.31936 36.79807 89.81145 4.05103 1.55737 -15.85658 13.20447 3.16966 45.68147 -98.1449 8.78435 -2.35144 45.64991 -2.84666 -7.43512 -19.19049 -6.42484 -2.79659 -3.56276 49.04 5.69053 6.56326 -24.86467 -6.38356 1.88446 3.14102
0.00017 0.00016 -8e-05 -179.18021 -42.1536 -1.82856 48.6348 2.33946 -4.06047 6.08547 -2.16047 -0.4875 -11.15374 -12.27778 -5.47204 36.64586 89.82459 4.04817 1.56183 -16.28334 13.02226 3.16996 45.65821 -98.16666 8.83869 -2.33651 45.51896 -2.89206 -7.79919 -19.19788 -6.40908 -2.76381 -3.54841 48.93786 5.72546 6.65815 -24.86832 -6.38024 1.87431 3.13544
-9e-05 0.00011 -6e-05 -179.07452 -42.08044 -1.83057 48.67696 2.31317 -4.02987 5.91455 -2.1362 -0.4919 -11.67827 -12.16311 -5.62311 36.49379 89.83225 4.04374 1.56539 -16.7092 12.84022 3.17054 45.63505 -98.18851 8.89297 -2.32166 45.3881 -2.93746 -8.16314 -19.20527 -6.39333 -2.73103 -3.53406 48.83577 5.76045 6.75342 -24.87197 -6.37693 1.86414 3.12986
-0.00035 5e-05 -4e-05 -178.96865 -42.00712 -1.83256 48.71921 2.28684 -3.9993 5.74345 -2.11193 -0.49631 -12.20314 -12.0494 -5.77145 36.34144 89.82875 4.03608 1.56712 -17.13494 12.65805 3.17116 45.61197 -98.20995 8.9471 -2.30672 45.25697 -2.98299 -8.52798 -19.21267 -6.37754 -2.69817 -3.51967 48.73345 5.7957 6.84973 -24.87563 -6.37361 1.85387 3.12422
-0.0006 -1e-05 -2e-05 -178.86308 -41.93415 -1.83461 48.76128 2.26059 -3.96841 5.57225 -2.08752 -0.50071 -12.72948 -11.93066 -5.93303 36.18952 89.87603 4.04309 1.57719 -17.5638 12.47586 3.17065 45.58833 -98.23217 9.00179 -2.29176 45.12643 -3.02813 -8.89039 -19.22004 -6.36187 -2.66557 -3.50539 48.63169 5.82997 6.9417 -24.87925 -6.37029 1.84397 3.11877
-0.00086 -7e-05 -0 -178.75702 -41.86057 -1.83655 48.80366 2.23421 -3.93819 5.40145 -2.06343 -0.50511 -13.25219 -11.82187 -6.06875 36.03695 89.82485 4.02166 1.57108 -17.98587 12.29361 3.1731 45.56587 -98.25381 9.05567 -2.27711 44.99484 -3.07401 -9.25732 -19.22746 -6.34597 -2.63249 -3.49091 48.52891 5.86612 7.04205 -24.88295 -6.36696 1.83336 3.11296
-0.00112 -0.00013 2e-05 -178.65141 -41.78756 -1.83859 48.84573 2.20795 -3.90734 5.23028 -2.03903 -0.50951 -13.77839 -11.70446 -6.22655 35.88493 89.85758 4.02448 1.57876 -18.41427 12.11194 3.17156 45.54229 -98.27412 9.10962 -2.26173 44.86424 -3.1192 -9.62003 -19.23484 -6.33028 -2.59985 -3.47662 48.42708 5.90063 7.13511 -24.88658 -6.36365 1.82336 3.10747
-0.00137 -0.00019 4e-05 -178.5463 -41.71516 -1.84076 48.88754 2.18179 -3.87574 5.05854 -2.01427 -0.51391 -14.30868 -11.57412 -6.4188 35.73369 90.02149 4.06513 1.60801 -18.85049 11.92878 3.17009 45.51743 -98.30022 9.16638 -2.24723 44.7347 -3.16358 -9.97797 -19.24214 -6.31484 -2.56771 -3.46255 48.32634 5.93277 7.21749 -24.89009 -6.36034 1.81427 3.10244
-0.00164 -0.00025 6e-05 -178.43815 -41.639 -1.8422 48.93119 2.15493 -3.84855 4.8897 -1.99164 -0.51834 -14.81494 -11.51093 -6.4353 35.57824 89.5168 3.91277 1.52732 -19.24201 11.7476 3.18308 45.5002 -98.31531 9.21517 -2.23297 44.59861 -3.21275 -10.36456 -19.24983 -6.29795 -2.53256 -3.44717 48.21908 5.97742 7.35601 -24.89421 -6.35698 1.80045 3.09498
-0.00188 -0.0003 8e-05 -178.33655 -41.57092 -1.84518 48.97075 2.12962 -3.812 4.71504 -1.96449 -0.52269 -15.37209 -11.31078 -6.80802 35.43153 90.36691 4.15168 1.66943 -19.72752 11.56649 3.15611 45.46672 -98.33938 9.27549 -2.2148 44.47665 -3.25169 -10.68989 -19.25672 -6.28414 -2.50384 -3.43458 48.12577 5.99643 7.37951 -24.89709 -6.35375 1.7963 3.09248
-0.00208 -0.00033 0.0001 -178.25194 -41.52404 -1.8524 49.00081 2.10808 -3.74996 4.52166 -1.92499 -0.52683 -16.06847 -10.69062 -8.2934 35.31051 95.45084 5.61188 2.50752 -20.47639 11.34816 3.102 45.38942 -98.51492 9.41472 -2.21616 44.39116 -3.26338 -10.8526 -19.26116 -6.27861 -2.49236 -3.42945 48.06958 5.93809 7.05543 -24.89627 -6.35066 1.82157 3.1051
-0.00225 -0.00034 0.00012 -178.17412 -41.48546 -1.86118 49.02646 2.08819 -3.67853 4.32295 -1.88096 -0.53088 -16.81557 -9.9401 -10.11487 35.19812 101.81245 7.44137 3.55573 -21.31852 11.13511 2.99671 45.29573 -98.68261 9.55919 -2.20954 44.3203 -3.26469 -10.95292 -19.26482 -6.2762 -2.4874 -3.42716 48.02762 5.85522 6.62143 -24.89427 -6.34776 1.85604 3.12244
-0.00242 -0.00036 0.00013 -178.09377 -41.44367 -1.86925 49.05297 2.06784 -3.61124 4.12847 -1.83894 -0.53494 -17.54036 -9.27937 -11.68994 35.0805 107.23593 9.00074 4.4499 -22.11461 10.94623 2.85548 45.20891 -98.76263 9.66726 -2.18483 44.24423 -3.2702 -11.07808 -19.26899 -6.27245 -2.47974 -3.42371 47.97989 5.78826 6.25904 -24.89303 -6.34494 1.88438 3.13661
-0.00262 -0.00038 0.00016 -178.01093 -41.39946 -1.87732 49.08424 2.0462 -3.54432 3.92632 -1.79703 -0.53912 -18.26408 -8.49356 -13.64703 34.96776 114.11816 10.97734 5.58316 -22.92689 10.65222 2.94653 45.12414 -99.20052 9.9089 -2.24537 44.16207 -3.27775 -11.21749 -19.27251 -6.26837 -2.47102 -3.41973 47.92923 5.70151 5.80644 -24.89087 -6.34142 1.92083 3.15502
-0.00276 -0.00039 0.00017 -177.93509 -41.36232 -1.88574 49.10461 2.0277 -3.47458 3.73892 -1.75392 -0.54304 -18.99959 -7.93214 -14.90575 34.84772 118.33133 12.1917 6.27891 -23.72687 10.56963 2.56365 45.03167 -98.92538 9.88621 -2.13452 44.09611 -3.27875 -11.31303 -19.27717 -6.26571 -2.46599 -3.4175 47.88807 5.64972 5.5139 -24.8903 -6.3394 1.94273 3.16582
-0.00276 -0.00041 0.00018 -177.87516 -41.34218 -1.89499 49.09525 2.01698 -3.39801 3.59344 -1.70779 -0.54632 -19.77595 -8.06908 -13.9972 34.69843 114.27381 11.04057 5.62083 -24.47431 11.14454 0.69798 44.91826 -96.39378 9.02501 -1.48348 44.07106 -3.26279 -11.2972 -19.28551 -6.26624 -2.47018 -3.41972 47.86924 5.70436 5.70603 -24.8948 -6.34151 1.9208 3.15359
-0.00271 -0.00042 0.00018 -177.82241 -41.32895 -1.9045 49.07517 2.00944 -3.31918 3.46309 -1.66076 -0.54934 -20.55838 -8.42853 -12.40083 34.54284 107.58712 9.13883 4.53142 -25.20454 11.91761 -1.60663 44.79843 -93.20181 7.91845 -0.67333 44.06188 -3.24082 -11.24012 -19.29495 -6.26809 -2.47778 -3.42357 47.85955 5.79431 6.06018 -24.90089 -6.34512 1.88417 3.13369
-0.00268 -0.00043 0.00019 -177.76745 -41.31285 -1.91377 49.06048 2.00075 -3.24227 3.32577 -1.61467 -0.55245 -21.32464 -8.65432 -11.22518 34.39467 102.49981 7.69538 3.70297 -25.94088 12.55133 -3.58962 44.68394 -90.49831 6.9936 0.01913 44.04554 -3.22258 -11.20593 -19.30365 -6.26931 -2.4834 -3.42646 47.84592 5.86554 6.32979 -24.90601 -6.34801 1.85518 3.11786
-0.00265 -0.00044 0.00019 -177.70808 -41.29588 -1.92362 49.04354 1.99084 -3.16128 3.18834 -1.56619 -0.55568 -22.14994 -9.00927 -9.61517 34.2274 95.78346 5.78015 2.61314 -26.69101 13.39512 -6.09573 44.55847 -86.98742 5.76925 0.90449 44.02934 -3.19996 -11.1533 -19.31331 -6.27075 -2.49094 -3.43033 47.83182 5.94718 6.64146 -24.91211 -6.35107 1.82249 3.09976
-0.00261 -0.00044 0.0002 -177.65975 -41.28228 -1.93228 49.02865 1.98424 -3.08836 3.05523 -1.52253 -0.55859 -22.85225 -9.15432 -8.72905 34.09852 91.77623 4.65196 1.95575 -27.40297 13.84614 -7.60874 44.45479 -85.01636 5.11451 1.42447 44.01663 -3.18493 -11.12856 -19.32125 -6.27202 -2.49535 -3.43258 47.82078 6.01587 6.90566 -24.91659 -6.35413 1.79389 3.08449
-0.0026 -0.00042 0.00022 -177.63796 -41.27593 -1.9377 49.02314 1.98583 -3.03869 2.92701 -1.49216 -0.56069 -23.21922 -8.62663 -10.12198 34.07525 96.25803 5.98775 2.6558 -28.04888 13.18614 -6.33941 44.41087 -87.31932 6.05342 0.90975 44.00793 -3.19442 -11.20514 -19.32405 -6.27223 -2.48906 -3.42937 47.8152 6.03999 6.99721 -24.9161 -6.35683 1.78014 3.07896
-0.00258 -0.00039 0.00024 -177.62734 -41.27273 -1.94188 49.01977 1.99065 -2.99726 2.80343 -1.46663 -0.56248 -23.46033 -7.88785 -12.24515 34.09101 103.48386 8.12018 3.79427 -28.65007 12.12234 -4.04819 44.38952 -91.21112 7.57826 0.02112 44.00245 -3.21145 -11.3094 -19.32509 -6.27226 -2.47966 -3.42455 47.8125 6.04999 7.03602 -24.91396 -6.35948 1.77101 3.07654
-0.00256 -0.00037 0.00026 -177.61308 -41.26829 -1.94648 49.01481 1.99414 -2.95178 2.67975 -1.43914 -0.56439 -23.7557 -7.27181 -13.95822 34.09033 109.20575 9.8152 4.69278 -29.24808 11.22578 -2.17338 44.35921 -94.4794 8.86448 -0.70723 43.99659 -3.22365 -11.39133 -19.32699 -6.27256 -2.47253 -3.42088 47.80888 6.06672 7.10116 -24.91266 -6.36216 1.7597 3.07263
-0.00256 -0.00034 0.00028 -177.59325 -41.26338 -1.95159 49.01245 1.9973 -2.90726 2.54749 -1.41097 -0.56638 -24.06594 -6.55051 -15.97545 34.08459 115.91527 11.80037 5.74746 -29.94428 10.39467 -0.49384 44.32324 -97.34847 10.03803 -1.39657 43.98674 -3.24136 -11.51082 -19.32867 -6.27215 -2.46211 -3.41557 47.80383 6.08343 7.16309 -24.91101 -6.36489 1.74811 3.06872
-0.00252 -0.00032 0.0003 -177.58726 -41.26 -1.95546 49.00486 2.00171 -2.86304 2.43479 -1.38494 -0.56815 -24.31244 -5.99516 -17.54446 34.09797 121.26101 13.38276 6.58762 -30.42614 9.3415 1.81231 44.30445 -101.38498 11.5727 -2.24891 43.98571 -3.2497 -11.56185 -19.33038 -6.27311 -2.45751 -3.41317 47.80248 6.09624 7.2156 -24.90971 -6.36747 1.73853 3.06571
-0.00239 -0.00029 0.00029 -177.62002 -41.26065 -1.95544 48.98622 2.01007 -2.81503 2.36857 -1.36695 -0.5693 -24.4364 -5.9526 -17.67079 34.16179 122.10743 13.63699 6.71947 -30.32046 7.66468 5.84406 44.32854 -108.6873 14.09884 -3.53903 44.00846 -3.22824 -11.39405 -19.33244 -6.27835 -2.47175 -3.42026 47.80882 6.10283 7.26786 -24.90945 -6.36973 1.73216 3.0639
-0.00222 -0.00027 0.00027 -177.66592 -41.2625 -1.95441 48.96146 2.0193 -2.76752 2.32312 -1.35012 -0.57035 -24.49552 -6.08361 -17.32679 34.24257 121.50635 13.46502 6.62318 -30.00109 5.79855 10.42623 44.36923 -117.03146 16.94358 -4.96624 44.03977 -3.19741 -11.16055 -19.3346 -6.28488 -2.49158 -3.43016 47.81891 6.10569 7.30967 -24.90963 -6.37181 1.72794 3.06303
